<?xml version="1.0" encoding="utf-8"?>
<!-- Generator: Adobe Illustrator 26.0.1, SVG Export Plug-In . SVG Version: 6.00 Build 0)  -->
<svg version="1.1" id="Layer_1" xmlns="http://www.w3.org/2000/svg" xmlns:xlink="http://www.w3.org/1999/xlink" x="0px" y="0px"
	 viewBox="0 0 5000 2916" style="enable-background:new 0 0 5000 2916;" xml:space="preserve">
<style type="text/css">
	.st0{fill:url(#SVGID_1_);}
	.st1{filter:url(#Adobe_OpacityMaskFilter);}
	.st2{fill:url(#SVGID_00000040555904293275541620000010854339675801251971_);}
	.st3{mask:url(#SVGID_00000173151959759292132840000017909503165096767915_);fill-rule:evenodd;clip-rule:evenodd;fill:#7A4160;}
	.st4{filter:url(#Adobe_OpacityMaskFilter_00000182517369971172892640000013361508772108131513_);}
	.st5{fill:url(#SVGID_00000020382339458798335890000000213563096364830105_);}
	.st6{mask:url(#SVGID_00000149343004870966174820000005573025632815821978_);fill-rule:evenodd;clip-rule:evenodd;fill:#7A4160;}
	.st7{opacity:0.17;fill-rule:evenodd;clip-rule:evenodd;fill:#FF0066;enable-background:new    ;}
</style>
<g>
	<g>
		
			<linearGradient id="SVGID_1_" gradientUnits="userSpaceOnUse" x1="1469.5376" y1="427.2137" x2="4354.5132" y2="3307.1887" gradientTransform="matrix(1 0 0 -1 0 2913.8899)">
			<stop  offset="0" style="stop-color:#2A2A29"/>
			<stop  offset="1.210000e-02" style="stop-color:#2C2A2A"/>
			<stop  offset="0.2911" style="stop-color:#4E3441"/>
			<stop  offset="0.5561" style="stop-color:#663B52"/>
			<stop  offset="0.7993" style="stop-color:#75405C"/>
			<stop  offset="1" style="stop-color:#7A4160"/>
		</linearGradient>
		<rect y="0" class="st0" width="5000" height="2916"/>
	</g>
	<defs>
		<filter id="Adobe_OpacityMaskFilter" filterUnits="userSpaceOnUse" x="0" y="1767.6" width="5000" height="1148.4">
			<feColorMatrix  type="matrix" values="1 0 0 0 0  0 1 0 0 0  0 0 1 0 0  0 0 0 1 0"/>
		</filter>
	</defs>
	
		<mask maskUnits="userSpaceOnUse" x="0" y="1767.6" width="5000" height="1148.4" id="SVGID_00000173151959759292132840000017909503165096767915_">
		<g class="st1">
			
				<linearGradient id="SVGID_00000075860430963808140620000017893877399577117831_" gradientUnits="userSpaceOnUse" x1="6269.5586" y1="-971.9645" x2="-3057.0894" y2="-1711.8986" gradientTransform="matrix(1 0 0 -1 2600.1704 864.495)">
				<stop  offset="0" style="stop-color:#FFFFFF"/>
				<stop  offset="1" style="stop-color:#000000"/>
			</linearGradient>
			<rect y="1767.6" style="fill:url(#SVGID_00000075860430963808140620000017893877399577117831_);" width="5000" height="1148.4"/>
		</g>
	</mask>
	<path class="st3" d="M2579.9,2456.4c-404.1,147.5-787.5,294.3-1124.9,261.7c-835.3-80.7-952-625.5-1455-950.4V2916h5000
		c-265-361.9-543.1-562.5-826.5-658C3643.3,2079.2,3094.8,2268.4,2579.9,2456.4"/>
	<defs>
		
			<filter id="Adobe_OpacityMaskFilter_00000182500400032640014580000018320534166146232713_" filterUnits="userSpaceOnUse" x="0" y="1360.6" width="5000" height="1555.4">
			<feColorMatrix  type="matrix" values="1 0 0 0 0  0 1 0 0 0  0 0 1 0 0  0 0 0 1 0"/>
		</filter>
	</defs>
	
		<mask maskUnits="userSpaceOnUse" x="0" y="1360.6" width="5000" height="1555.4" id="SVGID_00000149343004870966174820000005573025632815821978_">
		<g style="filter:url(#Adobe_OpacityMaskFilter_00000182500400032640014580000018320534166146232713_);">
			
				<linearGradient id="SVGID_00000098207849064168596060000009033211253216188343_" gradientUnits="userSpaceOnUse" x1="4916.1797" y1="-25.2218" x2="-4243.8301" y2="-2305.2007" gradientTransform="matrix(1 0 0 -1 2600.1704 864.495)">
				<stop  offset="0" style="stop-color:#FFFFFF"/>
				<stop  offset="1" style="stop-color:#000000"/>
			</linearGradient>
			<rect y="1360.6" style="fill:url(#SVGID_00000098207849064168596060000009033211253216188343_);" width="5000" height="1555.4"/>
		</g>
	</mask>
	<path class="st6" d="M884.8,1383.9c-303.1-55.6-613.4-10.3-884.8,124.9V2916h5000v-892.4c-795.6-101.2-1613.5,588.6-2252.8,521.6
		C1752.6,2441,1862.6,1563.3,884.8,1383.9"/>
	<path class="st7" d="M3566.1,2193.2c94.8,9.8,189.3,30.5,283.2,64.9c373.5-146.5,764.7-283.6,1150.7-234.5v-339.1
		c-851-247.2-1745.3,556.4-2433.1,484.4c-994.6-104.1-884.6-981.8-1862.3-1161.3C466.8,963.9,224.5,982.4,0,1057.7v451
		c271.5-135.2,581.8-180.5,884.9-124.9c836.8,153.6,876.8,818.7,1494.6,1072.5c32.2,13.2,65.9,25.3,101.5,36.2
		c32.9-12,65.9-24.1,99-36.2C2899.8,2339.6,3232.7,2222.4,3566.1,2193.2 M3548.7,2191.4c1.6,0.1,3.2,0.3,4.9,0.5
		C3551.9,2191.8,3550.3,2191.6,3548.7,2191.4z M3522.3,2189.4c1.7,0.1,3.4,0.2,5.1,0.3C3525.7,2189.6,3524,2189.5,3522.3,2189.4z
		 M3498.8,2188c2.5,0.1,4.9,0.2,7.4,0.4C3503.7,2188.2,3501.2,2188.1,3498.8,2188z M3477,2187.1c2.5,0.1,4.9,0.2,7.4,0.3
		C3481.9,2187.2,3479.4,2187.2,3477,2187.1z M3455.7,2186.5c1.8,0,3.6,0.1,5.4,0.1C3459.3,2186.6,3457.5,2186.5,3455.7,2186.5z
		 M3430.3,2186.3c1.4,0,2.7,0,4,0C3433,2186.3,3431.6,2186.3,3430.3,2186.3z M3405.9,2186.5c2.4,0,4.7-0.1,7.1-0.1
		C3410.6,2186.4,3408.3,2186.5,3405.9,2186.5z M3383.9,2187.1c2.5-0.1,4.9-0.1,7.4-0.2C3388.8,2186.9,3386.4,2187,3383.9,2187.1z
		 M3362.4,2187.9c2.1-0.1,4.3-0.2,6.4-0.3C3366.6,2187.8,3364.5,2187.8,3362.4,2187.9z M3339.1,2189.2c0.7,0,1.3-0.1,2-0.1
		C3340.5,2189.1,3339.8,2189.2,3339.1,2189.2z M3312.8,2191.1c2.4-0.2,4.8-0.4,7.1-0.6C3317.5,2190.7,3315.1,2190.9,3312.8,2191.1z
		 M3290.7,2193c2.5-0.2,5.1-0.5,7.6-0.7C3295.8,2192.6,3293.2,2192.8,3290.7,2193z M3269.2,2195.2c2.3-0.2,4.6-0.5,6.9-0.7
		C3273.8,2194.7,3271.5,2194.9,3269.2,2195.2z M3220.2,2201.1c2.1-0.3,4.2-0.6,6.4-0.9C3224.5,2200.6,3222.4,2200.9,3220.2,2201.1z
		 M3197.7,2204.4c2.5-0.4,5-0.7,7.5-1.1C3202.7,2203.6,3200.2,2204,3197.7,2204.4z M3176,2207.7c2.4-0.4,4.7-0.8,7.1-1.1
		C3180.8,2207,3178.4,2207.3,3176,2207.7z M3154.8,2211.2c1.3-0.2,2.6-0.4,3.9-0.6C3157.3,2210.8,3156,2211,3154.8,2211.2z
		 M3127.5,2216.2c2-0.4,4-0.8,6.1-1.1C3131.5,2215.4,3129.5,2215.8,3127.5,2216.2z M3104.6,2220.6c2.6-0.5,5.1-1,7.7-1.5
		C3109.7,2219.6,3107.1,2220.1,3104.6,2220.6z M3083,2224.9c2.4-0.5,4.9-1,7.3-1.5C3087.9,2223.9,3085.5,2224.4,3083,2224.9z
		 M3061.8,2229.5c1.6-0.4,3.3-0.7,4.9-1.1C3065.1,2228.8,3063.4,2229.1,3061.8,2229.5z M3035.1,2235.5c1.9-0.4,3.7-0.9,5.6-1.3
		C3038.8,2234.7,3036.9,2235.1,3035.1,2235.5z M3011.8,2241.1c2.5-0.6,5.1-1.2,7.6-1.8C3016.9,2239.8,3014.3,2240.4,3011.8,2241.1z
		 M2990.2,2246.4c2.5-0.6,5-1.2,7.4-1.9C2995.2,2245.1,2992.7,2245.8,2990.2,2246.4z M2968.9,2251.8c1.9-0.5,3.9-1,5.9-1.5
		C2972.9,2250.8,2970.9,2251.3,2968.9,2251.8z M2919.7,2265.1c2.3-0.6,4.5-1.3,6.8-1.9C2924.3,2263.9,2922,2264.5,2919.7,2265.1z
		 M2876.3,2277.7c2.2-0.7,4.4-1.3,6.7-2C2880.8,2276.4,2878.5,2277,2876.3,2277.7z M2805.4,2299.6c2.6-0.8,5.1-1.6,7.7-2.5
		L2805.4,2299.6z M2784.3,2306.4c2.2-0.7,4.4-1.4,6.7-2.2C2788.8,2304.9,2786.5,2305.7,2784.3,2306.4z M2736,2322.5
		c2.1-0.7,4.2-1.4,6.2-2.1L2736,2322.5z"/>
</g>
</svg>
